<?xml version="1.0" standalone="no"?>
<!DOCTYPE svg PUBLIC "-//W3C//DTD SVG 20010904//EN"
 "http://www.w3.org/TR/2001/REC-SVG-20010904/DTD/svg10.dtd">
<svg version="1.0" xmlns="http://www.w3.org/2000/svg"
 width="1280.000000pt" height="640.000000pt" viewBox="0 0 1280.000000 640.000000"
 preserveAspectRatio="xMidYMid meet">
<g transform="translate(0.000000,640.000000) scale(0.100000,-0.100000)"
fill="#000000" stroke="none">
<path d="M1307 4863 c-4 -3 -7 -15 -7 -25 0 -22 32 -24 49 -4 10 12 8 17 -8
25 -23 13 -26 13 -34 4z"/>
<path d="M11457 4859 c-14 -8 -16 -14 -6 -25 19 -23 51 -18 47 8 -4 26 -17 31
-41 17z"/>
<path d="M1060 4827 c0 -27 -19 -47 -69 -72 -29 -14 -40 -15 -73 -6 -43 13
-73 8 -82 -14 -4 -11 2 -15 24 -15 17 0 30 -4 30 -9 0 -20 -40 -21 -90 -2 -60
23 -59 25 -62 -78 -3 -87 -17 -100 -49 -46 -21 35 -24 37 -61 31 -89 -14 -284
-140 -323 -209 -7 -12 -35 -22 -93 -32 -114 -20 -222 -70 -206 -96 9 -15 51
-10 75 10 16 13 29 16 40 11 32 -18 189 -31 409 -36 194 -4 247 -9 380 -34
331 -63 441 -72 567 -46 92 19 133 21 236 12 63 -6 95 -5 117 4 35 14 53 41
44 64 -4 10 -1 16 10 16 21 0 150 -52 239 -96 l72 -36 -35 37 -35 38 60 -6
c33 -4 126 -22 208 -41 134 -31 229 -50 463 -91 121 -22 215 -57 290 -109 47
-33 70 -44 77 -37 28 28 76 2 56 -30 -5 -8 -9 -17 -9 -21 0 -14 58 -37 200
-78 80 -23 189 -57 244 -76 54 -19 101 -34 105 -34 3 1 -29 19 -71 41 -73 37
-97 59 -64 59 32 0 183 -35 345 -81 95 -27 178 -49 184 -49 24 0 -13 19 -105
55 -112 42 -151 69 -143 95 8 27 -15 39 -110 56 -69 13 -93 22 -115 44 -20 19
-44 30 -77 35 -73 10 -91 28 -22 22 113 -10 290 -80 519 -204 41 -23 86 -44
100 -48 24 -6 23 -5 -7 24 -18 17 -33 33 -33 35 0 3 12 4 27 3 18 -1 28 3 31
14 2 11 -13 23 -50 38 -98 41 -97 40 -58 40 19 1 108 -11 198 -25 153 -25 196
-26 162 -3 -20 13 -138 49 -230 70 l-75 17 50 2 c28 1 59 5 70 10 19 7 19 8
-5 18 -14 5 -44 13 -67 16 -23 4 -44 13 -46 21 -6 14 -105 49 -171 61 -26 4
-41 3 -46 -6 -5 -9 -26 -4 -81 19 -95 40 -107 40 -75 -2 33 -43 33 -49 -1 -41
-105 23 -303 91 -303 103 0 4 18 13 40 20 58 17 40 31 -40 31 -82 0 -162 18
-301 66 -152 53 -253 104 -257 131 -5 36 -31 35 -70 -3 -33 -32 -42 -35 -77
-31 -22 2 -63 15 -90 27 -46 22 -48 24 -23 27 14 3 45 -5 67 -17 44 -22 47
-20 30 11 -13 24 4 49 32 49 32 0 21 19 -13 25 -18 3 -60 5 -93 4 -33 -1 -80
3 -105 10 -31 9 -78 10 -150 6 -146 -10 -120 7 65 40 83 15 152 29 154 31 13
13 -31 12 -272 -2 -182 -12 -283 -14 -319 -8 l-53 10 82 28 c46 15 85 32 88
37 8 11 -53 11 -179 -1 -148 -15 -187 2 -83 35 28 10 56 21 62 26 20 19 -164
7 -260 -17 -27 -6 -29 -6 -17 9 12 14 9 17 -25 26 -21 6 -65 11 -97 11 -52 0
-66 -5 -111 -35 -45 -31 -55 -35 -79 -25 -42 16 -115 12 -186 -10 -81 -25
-190 -38 -190 -22 0 7 42 33 93 59 69 36 86 48 70 51 -26 4 -28 17 -8 52 22
39 19 42 -38 35 -39 -5 -64 -2 -91 9 -48 20 -46 20 -46 -7z m2512 -901 c90
-34 198 -86 198 -96 0 -12 -57 3 -173 45 -103 38 -127 50 -127 66 0 15 37 10
102 -15z"/>
<path d="M11690 4833 c-24 -10 -50 -13 -87 -8 -57 7 -60 4 -38 -35 20 -35 18
-48 -7 -52 -17 -3 0 -15 70 -51 50 -26 92 -52 92 -59 0 -16 -109 -3 -190 22
-71 22 -144 26 -186 10 -24 -10 -34 -6 -79 25 -45 30 -59 35 -111 35 -32 0
-76 -5 -97 -11 -34 -9 -37 -12 -25 -26 12 -15 10 -15 -17 -9 -96 24 -280 36
-260 17 6 -5 34 -16 62 -26 104 -33 65 -50 -83 -35 -126 12 -187 12 -179 1 3
-5 42 -22 88 -37 l82 -28 -53 -10 c-36 -6 -137 -4 -319 8 -241 14 -285 15
-272 2 2 -2 72 -16 154 -31 185 -33 211 -50 65 -40 -72 4 -119 3 -150 -6 -25
-7 -72 -11 -105 -10 -33 1 -75 -1 -92 -4 -35 -6 -46 -25 -14 -25 28 0 45 -25
32 -49 -17 -31 -14 -33 30 -11 22 12 53 20 67 17 25 -3 23 -5 -23 -27 -27 -12
-68 -25 -90 -27 -35 -4 -44 -1 -77 31 -39 38 -65 39 -70 3 -4 -27 -105 -78
-257 -131 -139 -48 -219 -66 -301 -66 -80 0 -98 -14 -40 -31 22 -7 40 -16 40
-20 0 -12 -198 -80 -302 -103 -35 -8 -35 -2 -2 41 32 42 20 42 -75 2 -55 -23
-76 -28 -81 -19 -5 9 -20 10 -46 6 -66 -12 -165 -47 -171 -61 -2 -8 -23 -17
-46 -21 -23 -3 -53 -11 -67 -16 -24 -10 -24 -11 -5 -18 11 -5 43 -9 70 -10
l50 -2 -75 -17 c-92 -21 -210 -57 -230 -70 -34 -23 9 -22 162 3 90 14 179 26
198 25 39 0 40 1 -58 -40 -37 -15 -52 -27 -50 -38 3 -11 13 -15 31 -14 15 1
27 0 27 -3 0 -2 -15 -18 -32 -35 -31 -29 -32 -30 -8 -24 14 4 59 25 100 48
229 124 406 194 519 204 69 6 51 -12 -22 -22 -33 -5 -57 -16 -77 -35 -22 -22
-46 -31 -115 -44 -95 -17 -118 -29 -110 -56 8 -26 -31 -53 -143 -95 -92 -36
-129 -55 -105 -55 6 0 89 22 184 49 162 46 313 81 345 81 33 0 9 -22 -63 -59
-43 -22 -75 -40 -72 -41 4 0 51 15 105 34 55 19 164 53 244 76 142 41 200 64
200 78 0 4 -4 13 -9 21 -20 32 28 58 56 30 7 -7 30 4 77 37 75 52 169 87 290
109 234 41 329 60 463 91 82 19 175 37 208 41 l60 6 -35 -38 -35 -37 72 36
c89 44 218 96 239 96 11 0 14 -6 10 -16 -9 -23 9 -50 44 -64 22 -9 54 -10 117
-4 103 9 144 7 236 -12 126 -26 236 -17 567 46 133 25 186 30 380 34 220 5
377 18 409 36 11 5 24 2 40 -11 24 -20 66 -25 75 -10 16 26 -92 76 -206 96
-58 10 -86 20 -93 32 -39 69 -234 195 -323 209 -37 6 -40 4 -61 -31 -32 -54
-46 -41 -49 46 -3 103 -2 101 -62 78 -50 -19 -90 -18 -90 2 0 5 13 9 30 9 22
0 28 4 24 15 -9 22 -39 27 -82 14 -33 -9 -44 -8 -73 6 -50 25 -69 45 -69 72 0
26 -3 27 -50 6z m-2360 -892 c0 -16 -24 -28 -127 -66 -169 -61 -231 -67 -115
-10 133 66 242 100 242 76z"/>
<path d="M1504 4765 c-20 -49 -17 -58 11 -30 13 14 29 25 35 25 5 0 10 9 10
20 0 35 -39 25 -56 -15z"/>
<path d="M11240 4780 c0 -11 5 -20 10 -20 6 0 22 -11 35 -25 28 -28 31 -19 11
30 -17 40 -56 50 -56 15z"/>
<path d="M2274 4105 c11 -8 34 -15 50 -15 38 1 18 14 -34 24 -33 7 -34 6 -16
-9z"/>
<path d="M10483 4109 c-18 -5 -33 -12 -33 -14 0 -11 58 -4 76 10 23 17 7 18
-43 4z"/>
<path d="M2602 4077 c21 -18 56 -39 78 -46 57 -17 148 -26 135 -14 -16 16
-178 82 -216 89 l-34 5 37 -34z"/>
<path d="M10125 4081 c-38 -15 -88 -37 -110 -50 l-40 -22 55 5 c78 8 142 32
175 66 25 26 26 30 9 30 -10 -1 -50 -13 -89 -29z"/>
<path d="M4306 3825 c4 -8 47 -35 98 -59 50 -24 100 -53 110 -65 22 -24 42
-27 49 -7 4 9 23 16 49 18 l43 3 -60 18 c-33 11 -108 39 -167 63 -117 48 -130
51 -122 29z"/>
<path d="M8380 3799 c-52 -22 -126 -50 -165 -62 l-70 -22 43 -3 c26 -2 45 -9
49 -18 8 -20 21 -18 56 12 17 14 68 44 113 65 45 21 84 46 88 54 8 22 -10 18
-114 -26z"/>
<path d="M4730 3771 c0 -5 8 -12 18 -14 50 -14 72 -16 72 -8 0 5 -12 12 -27
15 -16 4 -36 9 -45 12 -10 3 -18 1 -18 -5z"/>
<path d="M8018 3768 c-43 -11 -52 -32 -10 -22 52 11 62 15 62 25 0 10 -2 10
-52 -3z"/>
<path d="M1600 3654 c-69 -8 -148 -21 -177 -29 -28 -8 -68 -15 -88 -15 -71 0
-291 -73 -377 -125 -31 -19 -63 -35 -72 -35 -23 0 -104 -76 -138 -129 -48 -77
-33 -140 28 -112 17 7 31 8 44 1 13 -7 24 -5 43 10 14 11 28 20 32 20 15 0 -4
-83 -32 -138 -21 -44 -34 -58 -53 -60 -34 -4 -100 -33 -100 -44 0 -5 11 -14
25 -20 34 -15 32 -28 -5 -28 -17 0 -39 -9 -51 -21 -19 -19 -28 -21 -90 -15
-38 4 -69 4 -69 -1 0 -4 44 -30 98 -58 53 -27 97 -56 97 -64 0 -7 -29 -30 -64
-50 -67 -37 -91 -64 -49 -54 13 3 61 23 108 45 48 22 86 34 88 28 6 -16 39
-12 115 15 42 16 74 22 79 17 14 -14 -15 -74 -57 -121 -32 -35 -35 -41 -17
-41 24 0 43 -21 34 -37 -4 -7 -25 -18 -47 -25 -21 -7 -41 -19 -43 -27 -4 -11
6 -13 50 -8 90 9 102 -15 26 -54 -22 -11 -38 -22 -35 -25 2 -3 78 -14 168 -25
187 -23 204 -26 219 -44 16 -19 -5 -29 -31 -14 -13 7 -39 8 -68 4 l-46 -7 30
-12 30 -13 -50 -25 c-28 -14 -61 -36 -75 -48 l-25 -21 30 6 c17 4 58 18 92 31
77 31 113 18 113 -42 0 -23 -18 -16 -22 9 -3 25 -22 25 -80 0 -44 -19 -49 -33
-12 -33 23 0 25 -3 20 -26 l-7 -26 68 8 c37 4 79 7 93 7 14 -1 69 -2 123 -3
53 -2 100 -6 102 -11 16 -25 -116 -44 -177 -25 -25 7 -29 5 -38 -20 -11 -28
-26 -44 -44 -44 -5 0 -1 9 9 20 18 19 17 20 -4 20 -14 0 -29 -12 -41 -33 -11
-19 -32 -40 -48 -47 -55 -27 11 -22 158 14 157 37 240 52 240 42 0 -3 -33 -22
-72 -42 -40 -21 -68 -39 -61 -41 6 -2 57 10 112 28 l101 32 118 -43 c127 -46
187 -74 197 -91 12 -18 -31 -53 -114 -94 -44 -21 -77 -43 -74 -48 5 -9 65 -3
99 10 15 5 16 2 11 -25 -4 -18 -2 -34 4 -38 18 -11 88 45 125 100 20 30 43 57
51 61 24 8 134 -16 140 -31 8 -20 -5 -60 -25 -80 -16 -17 -17 -16 -26 9 -6 15
-13 27 -17 27 -16 0 -109 -94 -109 -110 0 -30 19 -33 41 -7 26 34 78 46 96 21
15 -21 15 -21 41 31 48 96 138 126 262 87 l55 -18 -59 -42 c-40 -28 -70 -42
-91 -42 -19 0 -47 -12 -73 -31 -47 -35 -50 -34 -23 13 25 44 35 78 22 78 -16
0 -51 -75 -51 -108 0 -16 7 -35 15 -42 13 -11 21 -8 45 15 17 16 32 26 34 24
3 -3 1 -22 -4 -44 -5 -22 -8 -41 -6 -42 2 -2 27 13 57 33 51 34 54 35 57 15 2
-12 8 -21 13 -21 6 0 48 36 94 80 46 44 85 80 87 81 2 0 40 4 86 7 l83 7 -8
-25 c-12 -38 -10 -222 3 -244 10 -17 15 -14 46 35 19 30 44 62 56 72 19 18 22
18 44 3 13 -9 43 -16 70 -16 26 0 50 -5 53 -11 5 -7 15 -3 30 11 19 18 31 21
59 16 25 -5 47 -2 72 10 30 15 37 15 45 3 5 -8 9 -20 9 -27 0 -27 34 -6 42 25
15 57 97 102 144 81 21 -10 28 -8 52 15 36 35 57 34 72 -3 15 -36 30 -39 30
-7 0 13 -11 34 -25 47 -28 27 -32 55 -9 64 9 3 37 6 62 6 26 1 58 7 72 15 33
19 65 19 95 -1 24 -16 25 -15 42 16 32 57 54 80 77 80 13 0 43 13 67 30 39 26
50 29 94 24 36 -4 66 0 109 15 67 24 95 26 129 10 19 -9 31 -7 55 5 17 9 41
16 52 16 25 0 130 96 161 147 26 41 20 60 -26 79 -24 10 -47 32 -70 68 -19 30
-49 65 -67 77 -18 13 -78 69 -133 124 -55 55 -137 133 -182 173 -46 40 -83 78
-83 83 0 5 19 9 43 9 41 0 105 -27 214 -90 l41 -25 51 19 c33 11 62 15 83 11
l33 -6 -32 26 c-18 15 -33 35 -33 44 0 13 -16 26 -49 40 -28 11 -52 25 -56 30
-19 32 -367 272 -529 365 -262 151 -405 208 -711 281 -195 46 -291 61 -595 89
-492 46 -751 54 -970 30z m310 -549 c9 -11 11 -36 7 -83 -17 -184 61 -370 223
-533 105 -106 168 -144 350 -212 124 -46 169 -52 292 -37 307 37 462 154 687
522 29 47 61 94 72 104 18 16 21 16 62 0 24 -9 65 -31 92 -49 26 -17 64 -42
83 -53 44 -28 51 -40 45 -80 -4 -26 -2 -33 16 -39 28 -9 71 -73 71 -106 0 -32
-54 -104 -131 -173 -91 -82 -351 -196 -583 -256 -244 -63 -727 -79 -900 -31
-278 78 -459 170 -676 344 -103 83 -197 174 -228 222 -14 22 -33 46 -43 53
-26 18 -38 74 -30 136 8 59 28 97 64 121 33 21 457 165 488 165 15 0 32 -7 39
-15z m521 -96 c42 -45 139 -243 139 -284 0 -19 -12 -66 -26 -105 l-26 -70 -37
22 c-117 70 -190 129 -239 191 -39 49 -38 61 18 157 72 123 117 147 171 89z
m1197 -1096 c5 -17 -26 -29 -40 -15 -6 6 -7 15 -3 22 9 14 37 9 43 -7z m-1564
-36 c-17 -30 -39 -47 -60 -47 -31 0 -23 19 19 46 33 22 53 22 41 1z m1006 -81
c0 -16 -26 -46 -40 -46 -17 0 -19 17 -4 38 17 25 44 29 44 8z"/>
<path d="M10660 3659 c-206 -12 -671 -56 -790 -75 -125 -21 -346 -74 -493
-118 -175 -54 -421 -182 -672 -349 -129 -87 -301 -213 -310 -228 -4 -5 -28
-19 -56 -30 -33 -14 -49 -27 -49 -40 0 -9 -15 -29 -32 -44 l-33 -26 33 6 c21
4 50 0 83 -11 l51 -19 41 25 c109 63 173 90 215 90 23 0 42 -4 42 -9 0 -5 -37
-43 -82 -83 -170 -152 -228 -211 -228 -233 0 -42 30 -122 68 -181 83 -129 271
-317 349 -350 18 -8 40 -26 49 -42 10 -15 24 -37 31 -50 14 -22 16 -22 38 -8
30 20 62 20 95 1 14 -8 46 -14 72 -15 25 0 53 -3 62 -6 23 -9 19 -37 -9 -64
-14 -13 -25 -34 -25 -47 0 -32 15 -29 30 7 15 37 36 38 72 3 24 -23 31 -25 52
-15 47 21 129 -24 144 -81 8 -31 42 -52 42 -25 0 7 4 19 9 27 8 12 15 12 45
-3 25 -12 47 -15 72 -10 28 5 40 2 59 -16 15 -14 25 -18 30 -11 3 6 27 11 53
11 27 0 57 7 70 16 22 15 25 15 44 -3 12 -10 37 -42 56 -72 31 -49 36 -52 46
-35 13 22 15 206 3 244 l-8 25 83 -7 c46 -3 84 -7 86 -7 2 -1 41 -37 87 -81
46 -44 88 -80 94 -80 5 0 11 9 13 21 3 20 6 19 57 -15 30 -20 55 -35 57 -33 2
1 -1 20 -6 42 -5 22 -7 41 -4 44 2 2 17 -8 34 -24 24 -23 32 -26 45 -15 8 7
15 26 15 42 0 33 -35 108 -51 108 -13 0 -3 -34 22 -78 27 -47 24 -48 -23 -13
-26 19 -54 31 -73 31 -21 0 -51 14 -91 42 l-59 42 55 18 c69 21 121 22 167 3
49 -21 71 -41 95 -90 26 -52 26 -52 41 -31 18 25 70 13 96 -21 22 -26 41 -23
41 7 0 16 -93 110 -109 110 -4 0 -11 -12 -17 -27 -9 -25 -10 -26 -26 -9 -20
20 -33 60 -25 80 6 15 116 39 140 31 8 -4 31 -31 51 -61 37 -55 107 -111 125
-100 6 4 8 20 4 38 -5 27 -4 30 11 25 34 -13 94 -19 99 -10 3 5 -30 27 -74 48
-83 41 -126 76 -114 94 10 18 91 54 208 96 l108 37 100 -31 c55 -18 106 -30
112 -28 7 2 -21 20 -60 41 -40 20 -73 39 -73 42 0 10 83 -5 240 -42 147 -36
213 -41 158 -14 -16 7 -37 28 -48 47 -12 21 -27 33 -41 33 -21 0 -22 -1 -4
-20 10 -11 14 -20 9 -20 -18 0 -33 16 -44 44 -9 25 -13 27 -38 20 -61 -19
-193 0 -177 25 2 5 49 9 102 11 54 1 109 2 123 3 14 0 56 -3 93 -7 l68 -8 -7
26 c-5 23 -3 26 20 26 37 0 32 14 -11 33 -59 25 -78 25 -81 0 -4 -25 -22 -32
-22 -9 0 60 36 73 113 42 34 -13 76 -27 92 -31 l30 -6 -25 21 c-14 12 -47 34
-75 48 l-50 25 30 13 30 12 -46 7 c-29 4 -55 3 -68 -4 -26 -15 -47 -5 -31 14
15 18 32 21 219 44 90 11 166 22 168 25 3 3 -13 14 -35 25 -76 39 -64 63 26
54 44 -5 54 -3 50 8 -2 8 -22 20 -43 27 -22 7 -43 18 -47 25 -9 16 10 37 34
37 18 0 15 6 -17 41 -42 47 -71 107 -57 121 5 5 37 -1 79 -17 76 -27 109 -31
115 -15 2 6 40 -6 88 -28 47 -22 95 -42 108 -45 42 -10 18 17 -49 54 -35 20
-64 43 -64 50 0 8 44 37 97 64 54 28 98 54 98 58 0 5 -31 5 -69 1 -62 -6 -71
-4 -90 15 -12 12 -34 21 -51 21 -37 0 -39 13 -5 28 14 6 25 15 25 20 0 11 -66
40 -100 44 -19 2 -32 16 -53 60 -28 55 -47 138 -32 138 4 0 18 -9 32 -20 19
-15 30 -17 43 -10 13 7 27 6 44 -1 61 -28 76 35 28 112 -34 53 -115 129 -138
129 -9 0 -41 16 -72 35 -86 52 -306 125 -377 125 -20 0 -60 7 -88 15 -137 38
-399 51 -717 34z m515 -614 c233 -80 255 -90 282 -131 37 -58 34 -188 -6 -216
-10 -7 -29 -31 -43 -53 -31 -48 -125 -139 -228 -222 -217 -174 -398 -266 -676
-344 -173 -48 -656 -32 -900 31 -232 60 -492 174 -583 256 -75 67 -131 141
-131 171 0 34 63 152 104 194 76 78 224 161 255 142 9 -5 35 -39 58 -74 22
-35 63 -98 90 -139 178 -276 341 -386 621 -420 123 -15 168 -9 292 37 182 68
245 106 350 212 162 163 240 349 223 533 -7 76 3 98 46 98 14 0 125 -34 246
-75z m-1383 -130 c36 -33 73 -98 99 -171 24 -70 29 -225 8 -251 -22 -25 -83
-10 -158 40 -56 37 -74 57 -113 123 -47 81 -69 140 -63 171 14 72 16 75 58 93
62 29 135 26 169 -5z m-574 -1002 c5 -17 -26 -29 -40 -15 -6 6 -7 15 -3 22 9
14 37 9 43 -7z m1592 -70 c0 -7 -9 -13 -19 -13 -21 0 -64 47 -55 61 7 11 74
-32 74 -48z m-1036 -55 c15 -21 13 -38 -4 -38 -14 0 -40 30 -40 46 0 21 27 17
44 -8z"/>
<path d="M1048 2379 c-21 -11 -38 -24 -38 -29 0 -25 95 2 111 31 8 16 6 19
-13 19 -13 -1 -40 -10 -60 -21z"/>
<path d="M11679 2381 c16 -29 111 -56 111 -31 0 13 -74 50 -100 50 -17 0 -19
-3 -11 -19z"/>
<path d="M1690 1998 l-45 -22 55 -6 c44 -6 58 -4 68 9 32 39 -12 50 -78 19z"/>
<path d="M11026 2012 c-3 -5 -3 -18 0 -29 5 -19 11 -21 62 -16 32 3 58 7 60 9
5 4 -89 44 -104 44 -7 0 -15 -4 -18 -8z"/>
<path d="M1549 1951 c-13 -11 -22 -21 -19 -24 9 -8 73 17 78 31 6 19 -33 14
-59 -7z"/>
<path d="M11190 1959 c0 -12 70 -43 79 -34 9 10 -38 45 -60 45 -10 0 -19 -5
-19 -11z"/>
<path d="M1840 1900 c-8 -5 -30 -7 -48 -4 -24 5 -38 1 -54 -12 -22 -20 -108
-137 -108 -148 0 -3 19 13 41 35 37 37 187 119 217 119 6 0 14 5 17 10 8 13
-45 13 -65 0z"/>
<path d="M10892 1905 c5 -5 41 -23 82 -41 86 -37 161 -86 177 -115 6 -11 13
-18 16 -15 6 6 -75 123 -104 148 -12 11 -35 18 -59 17 -21 0 -57 3 -79 7 -22
3 -37 3 -33 -1z"/>
<path d="M2682 1758 c-16 -16 -15 -58 2 -58 19 0 38 26 34 46 -4 22 -20 28
-36 12z"/>
<path d="M10083 1754 c-8 -20 8 -48 31 -52 11 -3 16 4 16 20 0 40 -35 63 -47
32z"/>
</g>
</svg>
